<?xml version="1.0" encoding="iso-8859-1"?>
<!-- Generator: Adobe Illustrator 19.0.0, SVG Export Plug-In . SVG Version: 6.00 Build 0)  -->
<svg version="1.1" id="Layer_1" xmlns="http://www.w3.org/2000/svg" xmlns:xlink="http://www.w3.org/1999/xlink" x="0px" y="0px"
	 viewBox="0 0 479.645 479.645" style="enable-background:new 0 0 479.645 479.645;" xml:space="preserve">
<path d="M444.917,348.769c-21.439-45.977-76.283-65.939-122.261-44.5c-0.006,0.003-0.011,0.006-0.017,0.008l-25.081-43.443
	l79.225-137.222c11.353-19.662,14.368-42.569,8.492-64.5S365.333,18.853,345.67,7.5L332.68,0l-92.857,160.834L146.965,0l-12.99,7.5
	c-40.59,23.435-54.547,75.522-31.112,116.112l79.225,137.222l-25.081,43.443c-0.006-0.003-0.011-0.006-0.017-0.008
	c-45.978-21.438-100.821-1.476-122.261,44.5c-21.438,45.976-1.476,100.822,44.5,122.262c12.541,5.848,25.737,8.614,38.74,8.614
	c32.128,0,63.039-16.911,79.807-46l0.009,0.005l42.04-72.816l42.04,72.816l0.009-0.005c16.768,29.092,47.676,46,79.807,46
	c13,0,26.202-2.768,38.74-8.614C446.393,449.591,466.355,394.744,444.917,348.769z M342.621,42.781
	c16.699,17.198,20.745,44.068,8.181,65.831l-70.565,122.222l-23.094-40L342.621,42.781z M137.023,42.781l160.793,278.502
	c-11.18,10.753-19.325,24.078-23.926,38.559L128.843,108.612C116.278,86.85,120.325,59.979,137.023,42.781z M91.906,443.841
	c-30.984-14.448-44.437-51.41-29.989-82.395c14.448-30.982,51.411-44.438,82.393-29.988c30.984,14.448,44.437,51.41,29.989,82.395
	C159.851,444.835,122.889,458.29,91.906,443.841z M205.755,359.841c-4.601-14.481-12.746-27.806-23.926-38.559l17.579-30.449
	l23.094,40L205.755,359.841z M387.739,443.841c-30.981,14.447-67.945,0.996-82.393-29.988s-0.995-67.946,29.989-82.395
	c8.451-3.94,17.344-5.806,26.107-5.806c23.362,0,45.779,13.262,56.286,35.794C432.175,392.431,418.723,429.393,387.739,443.841z"/>
<g>
</g>
<g>
</g>
<g>
</g>
<g>
</g>
<g>
</g>
<g>
</g>
<g>
</g>
<g>
</g>
<g>
</g>
<g>
</g>
<g>
</g>
<g>
</g>
<g>
</g>
<g>
</g>
<g>
</g>
</svg>
